#tb 0: 1/25
0,          1,          1,        1,    36864, 0x954464be
0,          3,          3,        1,    36864, 0xace1d90b
0,          5,          5,        1,    36864, 0x8f149f03
0,          7,          7,        1,    36864, 0xea9b21eb
0,          9,          9,        1,    36864, 0xb51d9fe3
0,         11,         11,        1,    36864, 0x61bd11d7
0,         13,         13,        1,    36864, 0x9d36980f
0,         15,         15,        1,    36864, 0xa4192c5e
0,         17,         17,        1,    36864, 0x11006433
0,         19,         19,        1,    36864, 0x4a243e46
0,         21,         21,        1,    36864, 0x1807b5e8
0,         23,         23,        1,    36864, 0xbe37743c
0,         25,         25,        1,    36864, 0x82491319
0,         27,         27,        1,    36864, 0x006e9914
0,         29,         29,        1,    36864, 0xa5261884
0,         31,         31,        1,    36864, 0x2030c9d6
0,         33,         33,        1,    36864, 0xc80eb1ce
0,         35,         35,        1,    36864, 0x4d559791
0,         37,         37,        1,    36864, 0xf5f900ee
0,         39,         39,        1,    36864, 0x2cc9c0d7
0,         41,         41,        1,    36864, 0x5ba14186
0,         43,         43,        1,    36864, 0x47a46865
0,         45,         45,        1,    36864, 0x5ba180b7
0,         47,         47,        1,    36864, 0xc67c4876
0,         49,         49,        1,    36864, 0x4311d75d
0,         51,         51,        1,    36864, 0x56edb851
0,         53,         53,        1,    36864, 0x7e5aa3e0
0,         55,         55,        1,    36864, 0x8df8283a
0,         57,         57,        1,    36864, 0xb8583ddf
0,         59,         59,        1,    36864, 0xf33fb779
0,         61,         61,        1,    36864, 0xe9942ddc
0,         63,         63,        1,    36864, 0x2bc5f7fa
0,         65,         65,        1,    36864, 0xc7b66c65
0,         67,         67,        1,    36864, 0x1a524319
0,         69,         69,        1,    36864, 0xf60c6141
0,         71,         71,        1,    36864, 0x113f41f2
0,         73,         73,        1,    36864, 0xad191a31
0,         75,         75,        1,    36864, 0x3898264a
0,         77,         77,        1,    36864, 0x3c2f34a4
0,         79,         79,        1,    36864, 0xd0fc76aa
0,         81,         81,        1,    36864, 0x2870b546
0,         83,         83,        1,    36864, 0x7d326fb4
0,         85,         85,        1,    36864, 0xd7ed14e1
0,         87,         87,        1,    36864, 0x205174aa
0,         89,         89,        1,    36864, 0xa3a88be9
0,         91,         91,        1,    36864, 0xd6f01751
0,         93,         93,        1,    36864, 0x5420bb80
0,         95,         95,        1,    36864, 0xe14518f9
0,         97,         97,        1,    36864, 0x931db61e
0,         99,         99,        1,    36864, 0x052ecfae
0,        101,        101,        1,    36864, 0x29b1b0f5
0,        103,        103,        1,    36864, 0xa3057117
0,        105,        105,        1,    36864, 0x954464be
0,        107,        107,        1,    36864, 0xace1d90b
0,        109,        109,        1,    36864, 0x8f149f03
0,        111,        111,        1,    36864, 0x485722c5
0,        113,        113,        1,    36864, 0x534b18f9
0,        115,        115,        1,    36864, 0xc893a0a6
0,        117,        117,        1,    36864, 0x8b04e1dd
0,        119,        119,        1,    36864, 0xaf536964
